<svg xmlns="http://www.w3.org/2000/svg" width="3293.333" height="3293.333" preserveAspectRatio="xMidYMid meet" version="1.0" viewBox="0 0 2470 2470"><metadata>Created by potrace 1.11, written by Peter Selinger 2001-2013</metadata><g fill="#000" stroke="none"><path d="M7520 20051 c10 -25 117 -281 237 -567 l219 -521 -1341 -3429 c-738 -1886 -1361 -3474 -1384 -3529 -65 -151 -222 -457 -297 -575 -304 -486 -675 -745 -1147 -801 -174 -20 -157 -12 -157 -74 l0 -55 198 0 c108 0 366 9 572 20 449 24 630 24 1020 5 162 -8 418 -18 568 -22 l272 -6 0 56 c0 48 -3 57 -17 57 -81 1 -281 23 -364 40 -194 40 -355 122 -453 231 -59 66 -122 194 -142 289 -19 91 -22 286 -4 390 41 252 102 434 360 1083 l201 507 2272 0 2272 -1 378 -902 c208 -496 393 -940 410 -987 28 -77 31 -96 31 -205 1 -112 -1 -124 -27 -177 -54 -110 -170 -188 -340 -228 -70 -17 -262 -40 -334 -40 -21 0 -23 -5 -23 -55 l0 -55 181 0 c100 0 308 8 463 17 382 23 1055 23 1421 0 149 -9 354 -17 458 -17 l187 0 0 55 c0 30 -4 55 -9 55 -5 0 -54 5 -110 10 -363 38 -636 238 -823 602 -24 46 -871 2061 -1882 4478 l-1840 4396 -522 0 -522 1 18 -46z m1700 -4041 c612 -1477 1115 -2693 1118 -2702 4 -17 -106 -18 -2207 -18 -1216 0 -2211 2 -2211 4 0 2 2069 5328 2132 5486 9 24 11 23 33 -30 12 -30 523 -1263 1135 -2740z" transform="translate(0.000000,2470.000000) scale(0.100000,-0.100000)"/><path d="M11740 16546 l0 -53 108 -7 c263 -17 504 -98 712 -239 111 -76 301 -271 386 -397 161 -237 2683 -4293 2677 -4303 -22 -38 -2170 -3017 -2326 -3227 -332 -445 -438 -566 -642 -735 -372 -306 -636 -434 -960 -465 -60 -5 -113 -10 -117 -10 -5 0 -8 -25 -8 -55 l0 -55 193 0 c105 0 361 9 567 20 448 23 633 24 1005 5 154 -8 405 -18 558 -22 l277 -6 0 55 0 55 -148 11 c-275 21 -443 82 -565 203 -107 106 -147 215 -147 395 0 169 40 308 155 532 35 70 100 181 144 247 107 162 2095 2918 2107 2921 9 3 2206 -3522 2256 -3621 85 -167 106 -332 56 -431 -79 -153 -270 -225 -655 -250 l-103 -6 0 -55 0 -55 403 5 c221 2 526 12 677 22 319 20 804 16 1160 -9 121 -9 350 -16 523 -16 l307 0 0 54 0 54 -77 6 c-361 28 -619 129 -865 340 -85 74 -202 208 -276 318 -91 137 -2735 4393 -2735 4404 0 15 1900 2853 2042 3049 310 430 615 771 841 942 247 185 503 285 815 316 l130 12 3 53 3 52 -238 0 c-131 0 -362 -7 -513 -17 -348 -20 -750 -20 -1140 1 -168 9 -396 16 -507 16 l-203 0 0 -55 0 -55 63 0 c34 0 103 -5 152 -10 352 -40 558 -180 626 -425 23 -83 18 -264 -10 -360 -50 -171 -154 -383 -313 -635 -123 -197 -1834 -2745 -1843 -2745 -13 0 -2149 3448 -2188 3532 -95 203 -86 379 25 479 108 97 363 164 630 164 l68 0 0 55 0 55 -342 0 c-208 0 -448 -7 -608 -17 -352 -22 -905 -22 -1228 0 -152 11 -369 17 -578 17 l-334 0 0 -54z" transform="translate(0.000000,2470.000000) scale(0.100000,-0.100000)"/></g></svg>